# xmcd
#
# Track frame offsets:
#	150
#	24998
#	46390
#	73439
#	97895
#	129582
#	157078
#	176176
#
# Disc length: 2672 seconds
#
# Revision: 1
# Processed by: cddbd v1.5.2PL0 Copyright (c) Steve Scherf et al.
# Submitted via: audiograbber 1.83.01
#
DISCID=6e0a6e08
DTITLE=Zombiefication - Procession through infestation
DYEAR=2014
DGENRE=Death Metal
TTITLE0=Procession
TTITLE1=The never ending quest
TTITLE2=Procession
TTITLE3=Crossing the rite
TTITLE4=Infestation
TTITLE5=The divine door
TTITLE6=Oppression
TTITLE7=The blackest light
EXTD=
EXTT0=
EXTT1=
EXTT2=
EXTT3=
EXTT4=
EXTT5=
EXTT6=
EXTT7=
PLAYORDER=
